<svg xmlns="http://www.w3.org/2000/svg" xmlns:xlink="http://www.w3.org/1999/xlink" width="552" zoomAndPan="magnify" viewBox="436 395 552 124" height="124" preserveAspectRatio="xMidYMid meet" version="1.0" transform="rotate(undefined)"><defs><g></g></defs><g fill="#000000" fill-opacity="1"><g transform="translate(127.964836, 440.999998)"><g><path d="M 78.71875 -60 L 61.59375 -60.15625 C 47.519531 -60.15625 36.535156 -56.742188 28.640625 -49.921875 C 19.359375 -42.023438 14.71875 -32.851562 14.71875 -22.40625 C 14.71875 -17.5 15.863281 -12.988281 18.15625 -8.875 C 20.445312 -4.769531 24.550781 -1.382812 30.46875 1.28125 C 36.394531 3.945312 44.394531 5.28125 54.46875 5.28125 C 64.550781 5.28125 75.191406 3.148438 86.390625 -1.109375 C 97.597656 -5.378906 107.039062 -10.503906 114.71875 -16.484375 C 123.46875 -23.304688 127.84375 -29.28125 127.84375 -34.40625 C 127.84375 -36.851562 126.5625 -38.367188 124 -38.953125 C 121.4375 -39.546875 120.101562 -40.210938 120 -40.953125 C 119.789062 -41.921875 120.59375 -42.347656 122.40625 -42.234375 C 124.21875 -42.128906 125.707031 -41.757812 126.875 -41.125 C 131.675781 -38.5625 134.078125 -35.253906 134.078125 -31.203125 C 134.078125 -25.222656 129.941406 -18.976562 121.671875 -12.46875 C 113.410156 -5.96875 102.984375 -0.800781 90.390625 3.03125 C 77.804688 6.875 66.019531 8.796875 55.03125 8.796875 C 44.050781 8.796875 35.144531 7.726562 28.3125 5.59375 C 16.257812 1.863281 8.421875 -5.015625 4.796875 -15.046875 C 3.835938 -17.597656 3.359375 -20.046875 3.359375 -22.390625 C 3.359375 -24.742188 3.785156 -27.648438 4.640625 -31.109375 C 5.492188 -34.578125 7.410156 -38.550781 10.390625 -43.03125 C 13.378906 -47.519531 17.703125 -51.679688 23.359375 -55.515625 C 29.015625 -59.359375 35.066406 -62.210938 41.515625 -64.078125 C 47.972656 -65.941406 53.757812 -66.984375 58.875 -67.203125 C 53.539062 -69.117188 49.007812 -71.78125 45.28125 -75.1875 C 41.550781 -78.601562 39.6875 -82.285156 39.6875 -86.234375 C 39.6875 -86.554688 39.6875 -86.878906 39.6875 -87.203125 C 40.425781 -95.835938 45.273438 -103.59375 54.234375 -110.46875 C 63.203125 -117.351562 72.59375 -122.101562 82.40625 -124.71875 C 92.21875 -127.332031 100.695312 -128.640625 107.84375 -128.640625 C 110.082031 -128.640625 112.269531 -128.53125 114.40625 -128.3125 C 123.257812 -127.25 129.601562 -125.035156 133.4375 -121.671875 C 137.28125 -118.316406 139.203125 -114.929688 139.203125 -111.515625 C 139.203125 -106.710938 136.453125 -102.097656 130.953125 -97.671875 C 125.460938 -93.253906 118.828125 -90.191406 111.046875 -88.484375 C 109.117188 -88.054688 107.539062 -87.84375 106.3125 -87.84375 C 105.09375 -87.84375 104.535156 -88.160156 104.640625 -88.796875 C 105.066406 -90.078125 106.878906 -90.90625 110.078125 -91.28125 C 113.273438 -91.65625 116.367188 -92.910156 119.359375 -95.046875 C 125.328125 -99.410156 128.738281 -105.0625 129.59375 -112 C 129.59375 -112.320312 129.59375 -112.640625 129.59375 -112.953125 C 129.59375 -115.617188 128.316406 -118.070312 125.765625 -120.3125 C 122.554688 -123.300781 117.164062 -124.796875 109.59375 -124.796875 C 102.019531 -124.796875 94.179688 -123.59375 86.078125 -121.1875 C 77.972656 -118.789062 70.507812 -114.820312 63.6875 -109.28125 C 55.570312 -102.664062 51.515625 -95.46875 51.515625 -87.6875 C 51.515625 -84.59375 52.445312 -81.765625 54.3125 -79.203125 C 56.1875 -76.640625 58.910156 -74.742188 62.484375 -73.515625 C 66.054688 -72.296875 69.65625 -71.257812 73.28125 -70.40625 C 81.488281 -68.695312 85.59375 -66.457031 85.59375 -63.6875 C 85.59375 -61.226562 83.300781 -60 78.71875 -60 Z M 78.71875 -60 "></path></g></g></g><g fill="#000000" fill-opacity="1"><g transform="translate(258.361652, 440.999998)"><g><path d="M 16.3125 41.125 C 14.925781 39.09375 14.234375 37.171875 14.234375 35.359375 C 14.234375 33.546875 15.992188 28.640625 19.515625 20.640625 C 23.035156 12.640625 27.222656 3.757812 32.078125 -6 C 36.929688 -15.757812 40.050781 -22.1875 41.4375 -25.28125 C 39.84375 -22.394531 36.109375 -16.953125 30.234375 -8.953125 C 25.222656 -3.085938 20.375 -0.15625 15.6875 -0.15625 C 14.613281 -0.15625 13.546875 -0.316406 12.484375 -0.640625 C 7.035156 -2.984375 4.3125 -7.570312 4.3125 -14.40625 C 4.3125 -23.570312 8.898438 -33.648438 18.078125 -44.640625 C 23.085938 -50.609375 28.957031 -54.394531 35.6875 -56 C 37.5 -56.53125 39.3125 -56.796875 41.125 -56.796875 C 45.914062 -56.796875 50.554688 -55.195312 55.046875 -52 C 56.859375 -50.613281 57.765625 -49.441406 57.765625 -48.484375 C 57.765625 -47.523438 57.550781 -46.773438 57.125 -46.234375 C 56.269531 -44.953125 55.304688 -44.847656 54.234375 -45.921875 C 53.921875 -46.242188 53.65625 -46.722656 53.4375 -47.359375 C 51.945312 -51.410156 49.757812 -53.4375 46.875 -53.4375 C 44 -53.4375 40.75 -52.15625 37.125 -49.59375 C 30.082031 -44.6875 24.160156 -38.097656 19.359375 -29.828125 C 14.554688 -21.566406 12.15625 -15.410156 12.15625 -11.359375 C 12.15625 -8.265625 13.222656 -6.238281 15.359375 -5.28125 C 15.890625 -5.0625 16.476562 -4.953125 17.125 -4.953125 C 22.34375 -4.953125 30.234375 -13.703125 40.796875 -31.203125 C 43.785156 -36.003906 45.835938 -38.859375 46.953125 -39.765625 C 48.078125 -40.671875 49.117188 -41.125 50.078125 -41.125 C 51.035156 -41.125 51.675781 -41.125 52 -41.125 C 52.320312 -41.125 53.28125 -40.988281 54.875 -40.71875 C 56.476562 -40.445312 57.707031 -40.367188 58.5625 -40.484375 C 52.800781 -31.628906 45.28125 -16.375 36 5.28125 C 26.71875 26.9375 21.703125 40.484375 20.953125 45.921875 C 20.523438 45.171875 19.695312 44.234375 18.46875 43.109375 C 17.25 41.992188 16.53125 41.332031 16.3125 41.125 Z M 16.3125 41.125 "></path></g></g></g><g fill="#000000" fill-opacity="1"><g transform="translate(313.080315, 440.999998)"><g><path d="M 3.515625 -9.28125 C 3.515625 -13.863281 5.488281 -19.410156 9.4375 -25.921875 C 7.726562 -25.921875 7.25 -26.773438 8 -28.484375 L 10.875 -34.078125 C 14.5 -41.015625 17.488281 -46.882812 19.84375 -51.6875 C 20.90625 -53.925781 22.984375 -55.046875 26.078125 -55.046875 L 35.84375 -55.046875 C 32 -52.265625 28.128906 -46.898438 24.234375 -38.953125 C 20.347656 -31.015625 17.335938 -24.773438 15.203125 -20.234375 C 13.066406 -15.703125 12 -12.265625 12 -9.921875 C 12 -7.578125 12.398438 -5.921875 13.203125 -4.953125 C 14.003906 -3.992188 15.097656 -3.515625 16.484375 -3.515625 C 18.503906 -3.515625 21.328125 -5.648438 24.953125 -9.921875 C 30.609375 -16.535156 38.554688 -30.457031 48.796875 -51.6875 C 49.972656 -53.925781 52.054688 -55.046875 55.046875 -55.046875 L 63.6875 -55.046875 C 61.332031 -53.222656 59.488281 -51.351562 58.15625 -49.4375 C 56.820312 -47.519531 54.984375 -44.109375 52.640625 -39.203125 C 46.242188 -26.398438 42.671875 -17.921875 41.921875 -13.765625 C 41.597656 -12.265625 41.4375 -10.875 41.4375 -9.59375 C 41.4375 -6.1875 42.609375 -4.375 44.953125 -4.15625 C 50.710938 -4.15625 57.804688 -13.0625 66.234375 -30.875 C 66.878906 -32.375 67.519531 -32.960938 68.15625 -32.640625 C 68.800781 -32.316406 69.125 -31.890625 69.125 -31.359375 C 69.125 -30.828125 68.640625 -29.597656 67.671875 -27.671875 C 66.710938 -25.753906 65.78125 -23.890625 64.875 -22.078125 C 63.96875 -20.265625 62.582031 -17.785156 60.71875 -14.640625 C 58.851562 -11.492188 57.117188 -9.015625 55.515625 -7.203125 C 51.359375 -2.503906 47.28125 -0.15625 43.28125 -0.15625 C 39.28125 -0.15625 36.535156 -1.914062 35.046875 -5.4375 C 34.398438 -7.039062 34.078125 -9.066406 34.078125 -11.515625 C 34.078125 -13.972656 34.613281 -17.015625 35.6875 -20.640625 C 27.894531 -6.984375 20.691406 -0.15625 14.078125 -0.15625 C 8.316406 -0.15625 4.957031 -2.554688 4 -7.359375 C 3.675781 -7.890625 3.515625 -8.53125 3.515625 -9.28125 Z M 3.515625 -9.28125 "></path></g></g></g><g fill="#000000" fill-opacity="1"><g transform="translate(370.198919, 440.999998)"><g><path d="M 31.03125 -62.234375 C 29.539062 -60.953125 27.890625 -60.3125 26.078125 -60.3125 C 24.265625 -60.3125 22.820312 -60.953125 21.75 -62.234375 C 20.6875 -63.515625 20.265625 -65.0625 20.484375 -66.875 C 20.796875 -68.6875 21.695312 -70.234375 23.1875 -71.515625 C 24.6875 -72.796875 26.34375 -73.4375 28.15625 -73.4375 C 29.96875 -73.4375 31.429688 -72.796875 32.546875 -71.515625 C 33.671875 -70.234375 34.070312 -68.6875 33.75 -66.875 C 33.4375 -65.0625 32.53125 -63.515625 31.03125 -62.234375 Z M 15.359375 -3.515625 C 17.390625 -3.515625 19.523438 -4.53125 21.765625 -6.5625 C 25.710938 -10.507812 30.722656 -18.5625 36.796875 -30.71875 C 37.546875 -32.320312 38.296875 -32.800781 39.046875 -32.15625 C 39.253906 -31.945312 39.359375 -31.601562 39.359375 -31.125 C 39.359375 -30.644531 38.929688 -29.46875 38.078125 -27.59375 C 37.222656 -25.726562 36.445312 -24.046875 35.75 -22.546875 C 35.0625 -21.054688 33.726562 -18.628906 31.75 -15.265625 C 29.78125 -11.910156 28 -9.328125 26.40625 -7.515625 C 22.03125 -2.503906 17.894531 0 14 0 C 10.101562 0 7.300781 -1.171875 5.59375 -3.515625 C 3.894531 -5.867188 3.046875 -8.484375 3.046875 -11.359375 C 3.046875 -14.242188 3.738281 -17.390625 5.125 -20.796875 L 15.359375 -46.875 C 15.578125 -47.519531 15.6875 -48.375 15.6875 -49.4375 C 15.6875 -50.507812 15.046875 -51.894531 13.765625 -53.59375 L 22.5625 -53.765625 C 25.007812 -53.765625 26.445312 -53.3125 26.875 -52.40625 C 27.300781 -51.5 26.984375 -50.082031 25.921875 -48.15625 L 13.125 -18.234375 C 11.3125 -14.285156 10.40625 -10.925781 10.40625 -8.15625 C 10.40625 -5.0625 12.054688 -3.515625 15.359375 -3.515625 Z M 15.359375 -3.515625 "></path></g></g></g><g fill="#000000" fill-opacity="1"><g transform="translate(398.03825, 440.999998)"><g><path d="M 23.515625 -35.359375 C 23.515625 -37.597656 24.421875 -38.71875 26.234375 -38.71875 C 33.171875 -38.71875 44.90625 -38.503906 61.4375 -38.078125 C 63.25 -37.972656 64.367188 -37.28125 64.796875 -36 C 64.585938 -34.71875 63.679688 -33.972656 62.078125 -33.765625 C 53.753906 -33.765625 45.671875 -33.3125 37.828125 -32.40625 C 29.992188 -31.5 26.078125 -31.046875 26.078125 -31.046875 C 25.441406 -31.046875 24.851562 -31.550781 24.3125 -32.5625 C 23.78125 -33.570312 23.515625 -34.503906 23.515625 -35.359375 Z M 23.515625 -35.359375 "></path></g></g></g><g fill="#000000" fill-opacity="1"><g transform="translate(462.996651, 440.999998)"><g><path d="M 16.15625 -24.640625 C 14.664062 -21.015625 13.921875 -16.960938 13.921875 -12.484375 C 13.921875 -9.492188 14.585938 -7.117188 15.921875 -5.359375 C 17.253906 -3.597656 19.144531 -2.71875 21.59375 -2.71875 C 31.300781 -2.71875 40.101562 -11.835938 48 -30.078125 C 48.75 -31.785156 49.65625 -32.53125 50.71875 -32.3125 C 51.144531 -32.207031 51.359375 -31.941406 51.359375 -31.515625 C 51.359375 -31.085938 50.15625 -28.285156 47.75 -23.109375 C 45.351562 -17.941406 42.929688 -13.757812 40.484375 -10.5625 C 35.035156 -3.09375 28.3125 0.640625 20.3125 0.640625 C 16.050781 0.640625 12.425781 -0.742188 9.4375 -3.515625 C 6.445312 -6.296875 4.953125 -10.082031 4.953125 -14.875 C 4.953125 -19.675781 6.097656 -24.769531 8.390625 -30.15625 C 10.691406 -35.539062 13.816406 -40.550781 17.765625 -45.1875 C 21.710938 -49.832031 26.242188 -53.222656 31.359375 -55.359375 C 33.816406 -56.421875 36.164062 -56.953125 38.40625 -56.953125 C 40.644531 -56.953125 42.722656 -56.316406 44.640625 -55.046875 C 46.453125 -53.546875 47.359375 -51.890625 47.359375 -50.078125 C 47.359375 -43.679688 43.519531 -37.550781 35.84375 -31.6875 C 33.488281 -29.863281 30.175781 -28.234375 25.90625 -26.796875 C 21.644531 -25.359375 18.394531 -24.640625 16.15625 -24.640625 Z M 43.046875 -50.234375 C 43.046875 -52.367188 42.191406 -53.4375 40.484375 -53.4375 C 37.492188 -53.4375 32.957031 -49.757812 26.875 -42.40625 C 23.25 -37.925781 20.050781 -32.910156 17.28125 -27.359375 C 19.09375 -27.359375 21.734375 -28 25.203125 -29.28125 C 28.671875 -30.5625 31.679688 -32.269531 34.234375 -34.40625 C 40.109375 -39.414062 43.046875 -44.691406 43.046875 -50.234375 Z M 43.046875 -50.234375 "></path></g></g></g><g fill="#000000" fill-opacity="1"><g transform="translate(502.355673, 440.999998)"><g><path d="M 5.125 -12.796875 C 5.125 -21.648438 9.390625 -36.476562 17.921875 -57.28125 L 9.59375 -57.28125 C 9.0625 -57.28125 8.710938 -57.570312 8.546875 -58.15625 C 8.390625 -58.75 8.445312 -59.335938 8.71875 -59.921875 C 8.988281 -60.503906 9.390625 -60.796875 9.921875 -60.796875 L 19.515625 -60.796875 C 23.359375 -69.222656 26.929688 -76.265625 30.234375 -81.921875 C 33.546875 -87.578125 36.585938 -91.390625 39.359375 -93.359375 C 42.128906 -95.328125 44.128906 -96.3125 45.359375 -96.3125 C 46.585938 -96.3125 47.46875 -96.207031 48 -96 C 50.457031 -94.820312 51.6875 -92.394531 51.6875 -88.71875 C 51.6875 -85.039062 50.457031 -80.585938 48 -75.359375 C 45.539062 -70.128906 43.140625 -65.273438 40.796875 -60.796875 L 48.484375 -60.796875 C 49.015625 -60.796875 49.359375 -60.503906 49.515625 -59.921875 C 49.679688 -59.335938 49.628906 -58.75 49.359375 -58.15625 C 49.085938 -57.570312 48.6875 -57.28125 48.15625 -57.28125 L 38.875 -57.28125 C 33.007812 -47.363281 25.914062 -38.5625 17.59375 -30.875 L 13.921875 -14.5625 C 13.597656 -13.175781 13.4375 -11.816406 13.4375 -10.484375 C 13.4375 -9.148438 13.8125 -7.785156 14.5625 -6.390625 C 15.3125 -5.003906 16.484375 -4.3125 18.078125 -4.3125 C 19.890625 -4.3125 21.914062 -4.953125 24.15625 -6.234375 C 29.28125 -10.078125 34.9375 -18.132812 41.125 -30.40625 C 41.550781 -31.363281 42.054688 -31.945312 42.640625 -32.15625 C 43.222656 -32.375 43.566406 -32.242188 43.671875 -31.765625 C 43.785156 -31.285156 43.628906 -30.507812 43.203125 -29.4375 C 39.679688 -22.082031 36.90625 -16.859375 34.875 -13.765625 C 29.113281 -4.484375 22.984375 0.15625 16.484375 0.15625 C 13.171875 0.15625 10.445312 -1.066406 8.3125 -3.515625 C 6.1875 -5.972656 5.125 -9.066406 5.125 -12.796875 Z M 37.28125 -60.796875 C 44.320312 -73.390625 47.84375 -82.140625 47.84375 -87.046875 C 47.84375 -89.171875 47.46875 -90.234375 46.71875 -90.234375 C 45.539062 -90.234375 43.753906 -88.523438 41.359375 -85.109375 C 38.960938 -81.703125 34.9375 -73.597656 29.28125 -60.796875 Z M 35.203125 -57.28125 L 27.6875 -57.28125 C 26.40625 -54.289062 23.523438 -47.195312 19.046875 -36 C 24.804688 -41.96875 30.191406 -49.0625 35.203125 -57.28125 Z M 35.203125 -57.28125 "></path></g></g></g><g fill="#000000" fill-opacity="1"><g transform="translate(534.354863, 440.999998)"><g><path d="M 37.59375 -7.203125 C 37.59375 -4.210938 38.660156 -2.71875 40.796875 -2.71875 C 45.804688 -2.71875 52.898438 -12.101562 62.078125 -30.875 C 62.828125 -32.375 63.492188 -32.960938 64.078125 -32.640625 C 64.660156 -32.316406 64.953125 -31.890625 64.953125 -31.359375 C 64.953125 -30.828125 64.335938 -29.304688 63.109375 -26.796875 C 61.890625 -24.296875 60.664062 -21.894531 59.4375 -19.59375 C 58.207031 -17.300781 56.421875 -14.289062 54.078125 -10.5625 C 49.171875 -3.09375 43.945312 0.640625 38.40625 0.640625 C 34.769531 0.640625 31.890625 -0.851562 29.765625 -3.84375 C 28.796875 -5.226562 28.3125 -7.117188 28.3125 -9.515625 C 28.3125 -11.921875 28.84375 -14.828125 29.90625 -18.234375 C 30.976562 -21.648438 33.914062 -27.195312 38.71875 -34.875 C 39.894531 -36.800781 40.484375 -38.320312 40.484375 -39.4375 C 40.484375 -40.5625 39.578125 -41.125 37.765625 -41.125 C 35.953125 -41.125 32.484375 -38.722656 27.359375 -33.921875 C 19.679688 -26.878906 12.210938 -16.316406 4.953125 -2.234375 C 4.210938 -0.640625 2.242188 0.15625 -0.953125 0.15625 C -3.835938 0.375 -5.65625 0.695312 -6.40625 1.125 C 13.863281 -41.007812 28.53125 -70.398438 37.59375 -87.046875 C 39.625 -90.773438 41.410156 -93.382812 42.953125 -94.875 C 44.503906 -96.375 46.347656 -97.125 48.484375 -97.125 C 49.015625 -97.125 50.132812 -96.988281 51.84375 -96.71875 C 53.550781 -96.445312 54.832031 -96.367188 55.6875 -96.484375 C 52.476562 -93.171875 46.738281 -84.019531 38.46875 -69.03125 C 30.207031 -54.050781 22.289062 -38.828125 14.71875 -23.359375 C 19.726562 -29.648438 24.234375 -34.554688 28.234375 -38.078125 C 32.234375 -41.597656 37.113281 -44.929688 42.875 -48.078125 C 48.632812 -51.222656 52.847656 -52.796875 55.515625 -52.796875 C 56.160156 -52.796875 56.75 -52.691406 57.28125 -52.484375 C 44.15625 -29.441406 37.59375 -14.347656 37.59375 -7.203125 Z M 37.59375 -7.203125 "></path></g></g></g><g fill="#000000" fill-opacity="1"><g transform="translate(587.473573, 440.999998)"><g><path d="M 38.234375 -56 C 46.023438 -56 49.921875 -51.09375 49.921875 -41.28125 C 49.921875 -36.800781 48.75 -32 46.40625 -26.875 C 43.414062 -19.945312 38.929688 -13.65625 32.953125 -8 C 34.347656 -5.332031 36.859375 -4 40.484375 -4 C 43.359375 -4 46.078125 -5.4375 48.640625 -8.3125 C 51.835938 -11.625 54.128906 -14.53125 55.515625 -17.03125 C 56.898438 -19.539062 57.910156 -21.378906 58.546875 -22.546875 C 59.191406 -23.722656 60.019531 -25.40625 61.03125 -27.59375 C 62.050781 -29.78125 62.664062 -31.113281 62.875 -31.59375 C 63.09375 -32.070312 63.46875 -32.3125 64 -32.3125 C 65.0625 -32.425781 65.59375 -32.054688 65.59375 -31.203125 C 65.59375 -30.878906 65.488281 -30.503906 65.28125 -30.078125 L 64.3125 -27.84375 C 63.675781 -26.34375 63.195312 -25.273438 62.875 -24.640625 C 62.5625 -24.003906 62.003906 -22.859375 61.203125 -21.203125 C 60.398438 -19.546875 59.703125 -18.238281 59.109375 -17.28125 C 58.523438 -16.320312 57.726562 -15.039062 56.71875 -13.4375 C 55.707031 -11.84375 54.800781 -10.5625 54 -9.59375 C 53.195312 -8.632812 52.207031 -7.566406 51.03125 -6.390625 C 49.863281 -5.222656 48.75 -4.320312 47.6875 -3.6875 C 45.019531 -2.082031 42.507812 -1.28125 40.15625 -1.28125 C 35.78125 -1.28125 32.367188 -2.664062 29.921875 -5.4375 C 25.015625 -1.8125 20.476562 0 16.3125 0 C 8.53125 0 4.640625 -4.90625 4.640625 -14.71875 C 4.640625 -19.195312 5.8125 -24 8.15625 -29.125 C 11.351562 -36.582031 15.859375 -42.925781 21.671875 -48.15625 C 27.492188 -53.382812 33.015625 -56 38.234375 -56 Z M 40 -51.046875 C 37.125 -51.046875 33.710938 -49.125 29.765625 -45.28125 C 25.816406 -41.4375 22.296875 -36.207031 19.203125 -29.59375 C 15.460938 -21.914062 13.59375 -15.625 13.59375 -10.71875 C 13.59375 -5.8125 15.460938 -3.359375 19.203125 -3.359375 C 21.867188 -3.359375 24.851562 -4.800781 28.15625 -7.6875 C 26.445312 -10.132812 25.59375 -12.742188 25.59375 -15.515625 C 25.8125 -20.109375 27.679688 -22.40625 31.203125 -22.40625 C 32.585938 -22.40625 33.734375 -21.921875 34.640625 -20.953125 C 35.546875 -19.992188 36 -19.113281 36 -18.3125 C 36 -17.519531 35.894531 -16.695312 35.6875 -15.84375 C 37.5 -18.507812 39.578125 -22.296875 41.921875 -27.203125 C 44.585938 -32.640625 45.921875 -37.972656 45.921875 -43.203125 C 45.921875 -48.429688 43.945312 -51.046875 40 -51.046875 Z M 40 -51.046875 "></path></g></g></g><g fill="#000000" fill-opacity="1"><g transform="translate(641.072249, 440.999998)"><g><path d="M 22.875 -3.046875 C 24.257812 -2.828125 25.21875 -2.71875 25.75 -2.71875 C 30.019531 -2.71875 34.234375 -5.222656 38.390625 -10.234375 C 40.628906 -13.015625 44.628906 -20.003906 50.390625 -31.203125 C 50.609375 -31.734375 50.984375 -32 51.515625 -32 C 52.472656 -32.101562 52.953125 -31.726562 52.953125 -30.875 C 52.953125 -30.664062 52.710938 -30.050781 52.234375 -29.03125 C 51.753906 -28.019531 51.300781 -27.007812 50.875 -26 C 50.445312 -24.988281 49.753906 -23.519531 48.796875 -21.59375 C 47.835938 -19.675781 47.007812 -18.128906 46.3125 -16.953125 C 45.625 -15.785156 44.742188 -14.347656 43.671875 -12.640625 C 42.609375 -10.929688 41.539062 -9.597656 40.46875 -8.640625 L 37.109375 -5.125 C 35.296875 -3.3125 33.164062 -2.03125 30.71875 -1.28125 C 26.769531 0 22.929688 0.109375 19.203125 -0.953125 C 16.742188 0.109375 14.554688 0.640625 12.640625 0.640625 C 5.066406 0.640625 0.476562 -2.34375 -1.125 -8.3125 C -1.445312 -9.707031 -1.609375 -11.390625 -1.609375 -13.359375 C -1.609375 -15.328125 -0.941406 -17.21875 0.390625 -19.03125 C 1.722656 -20.851562 3.140625 -21.816406 4.640625 -21.921875 C 10.078125 -32.265625 14.71875 -41.597656 18.5625 -49.921875 C 22.820312 -58.984375 27.78125 -63.515625 33.4375 -63.515625 C 34.925781 -63.515625 36.390625 -63.164062 37.828125 -62.46875 C 39.273438 -61.78125 39.8125 -61.007812 39.4375 -60.15625 C 39.0625 -59.300781 38.285156 -59.140625 37.109375 -59.671875 C 35.941406 -60.210938 34.929688 -60.484375 34.078125 -60.484375 C 33.222656 -60.484375 32.476562 -60.320312 31.84375 -60 C 28.207031 -58.289062 26.390625 -54.609375 26.390625 -48.953125 C 26.390625 -45.972656 26.816406 -43.519531 27.671875 -41.59375 C 28.523438 -39.675781 29.488281 -37.597656 30.5625 -35.359375 C 33.007812 -29.816406 34.234375 -25.285156 34.234375 -21.765625 C 34.234375 -18.242188 33.113281 -14.773438 30.875 -11.359375 C 28.632812 -7.941406 25.96875 -5.171875 22.875 -3.046875 Z M 17.4375 -4.15625 C 22.125 -7.78125 24.46875 -13.648438 24.46875 -21.765625 C 24.46875 -25.066406 24.09375 -29.597656 23.34375 -35.359375 C 22.601562 -41.117188 22.234375 -45.007812 22.234375 -47.03125 C 22.234375 -49.0625 22.285156 -50.453125 22.390625 -51.203125 C 14.285156 -34.984375 9.273438 -25.113281 7.359375 -21.59375 C 9.597656 -21.59375 10.71875 -19.992188 10.71875 -16.796875 C 10.71875 -10.503906 12.957031 -6.289062 17.4375 -4.15625 Z M 5.4375 -8.484375 C 5.4375 -7.835938 5.488281 -7.144531 5.59375 -6.40625 C 6.445312 -3.519531 8.421875 -2.078125 11.515625 -2.078125 C 12.796875 -2.078125 13.863281 -2.289062 14.71875 -2.71875 C 10.769531 -5.175781 8.632812 -9.175781 8.3125 -14.71875 C 6.394531 -12.800781 5.4375 -10.722656 5.4375 -8.484375 Z M 5.4375 -8.484375 "></path></g></g></g></svg>